<?xml version="1.0" encoding="UTF-8"?>
<svg version="1.2" baseProfile="tiny-ps" viewBox="0 0 64 64" xmlns="http://www.w3.org/2000/svg" xmlns:xlink="http://www.w3.org/1999/xlink"><title>Toto</title><g><g fill="#e4b84c" transform="matrix(.1 0 0 -.1 0 64)"><path d="M0 320V0h640v640H0V320z"/></g><g fill="#ae8034" transform="matrix(.1 0 0 -.1 0 64)"><path d="M0 320V0h640v640H0V320zm251 270c22-12 42-27 46-35l5-15h16c9 0 26 10 38 21l23 21 55 2 56 1v-17l15 5 14 6 21-26 20-26v-88l-14-34-14-34-78-78-77-78 66 72c37 40 76 92 88 115l21 41-5 41-6 41-26 22-26 23h-35c-39 0-68-12-100-42l-21-19 4-47 4-47-12 20c-7 11-18 25-25 30l-13 10-3 34-3 34-28 21-28 21h-91l-29-33-29-32v-66l28-41c15-23 42-61 61-85l34-43-52 50-53 50-19 40-19 40v74l35 36 36 35h80l40-20zm59-459c-5-11-10-32-10-47V56l-9 9c-4 6-11 26-15 45l-6 35 10-15 10-15 11 18c14 23 22 22 9-2z"/></g><g fill="#7a5c1d" transform="matrix(.1 0 0 -.1 0 64)"><path d="M0 320V0h640v640H0V320zm200 300v-9l15 5 15 6v-23l9 5 9 6 32-31 31-31 37 26 37 25 25-5 25-6-15 11-15 11h90l-15-11-15-10 20 4 20 3 27-28c15-15 31-39 34-55l7-27-12-44-11-44-31-44c-16-24-44-54-60-67-17-12-60-57-95-100l-64-79V49l-10 6c-5 3-10 15-10 26 0 10-4 27-9 37-5 9-17 40-26 67l-18 50-39 52c-22 28-50 58-62 67l-23 15-21 43c-20 43-25 71-23 115l1 22 31 36 32 36 13-5 14-5v7c0 4 11 9 25 10l25 2v-10zm-80-58-22-17-5-38c-7-58 0-75 76-172l70-88 22-59c12-32 25-58 29-58s14 10 22 22c9 13 59 70 112 127 105 112 116 130 116 195v43l-20 18c-36 33-118 30-163-5l-24-19 7-40 7-40-8-13-9-13-9 15c-5 8-7 18-5 22l5 8-13-2-13-3-3 35-4 35-16 19c-21 23-73 46-106 46h-24l-22-18zm409-112-1-25-8 25c-4 14-8 32-9 40l-1 15 10-15c5-8 9-26 9-40z"/></g><g fill="#325c41" transform="matrix(.1 0 0 -.1 0 64)"><path d="M0 320V0h640v640H0V320zm238 296c15-8 38-26 51-40l24-25 34 26 35 27 58 4 57 4 33-29 32-29 5-47 6-47-18-48-18-47-82-85c-88-92-143-166-155-208l-7-27-16 35c-8 19-31 69-50 111l-34 75-47 52c-52 59-81 112-91 163l-7 36 16 36 15 37 33 20 33 20h66l27-14zm-125-69-6-10 14 8c8 4 4-2-8-14l-23-22v-24c0-40 15-67 84-150l66-79 21-58 22-58 11 8c10 7 120 121 179 187l27 30 11 38 10 39-7 31-6 32 7-7c4-4 11-22 16-40l9-33-5 39-4 40-19 19-19 18-41 5-42 5-22-12c-32-17-38-28-38-80v-45l-12-12-11-11-33 69-33 69-33 15-33 16-38-2-38-1-6-10z"/></g><g fill="#401f15" transform="matrix(.1 0 0 -.1 0 64)"><path d="M0 320V0h297l-29 90-30 90-9-5-9-6 7 17 6 17-11-7-12-7 5 13 5 13-22 36c-13 20-44 59-69 87l-46 50-18 58-18 58 14 40 14 40 34 23 34 23h68l27-14c15-8 38-26 51-40l24-25 34 26 35 27 58 4 57 4 33-29 32-29 5-47 6-47-18-47-18-47-91-96-91-96-22-45c-23-48-26-59-24-101l1-28h330v640H0V320zm390 220-15-11 30 7c37 8 45 14 19 14-10 0-26-5-34-10zm105-16c17-16 32-28 34-27 7 4-21 34-43 45l-21 11 30-29zm-363-31-11-18-8 5-8 5-3-30-3-30 71-85 70-84 21-58 22-58 11 8c10 6 117 118 175 182 12 14 28 34 33 45l11 20-14-12-14-11-2 36c-3 53-7 68-22 86l-13 16h-22c-12 0-34-6-49-12l-27-13v-33c0-18-4-40-9-50-5-9-12-25-15-34-8-27-21-22-34 15l-11 32 5 30 4 31-15 19-15 20 7-20 6-20-19 16-19 16-47 2-46 2-10-18zm355-3c6-8 13-33 16-55l4-40 1 41 2 42-17 13-18 14 12-15zm45-35v-30l5 18c2 9 2 23 0 30l-5 12v-30z"/></g><g fill="#0a0706" transform="matrix(.1 0 0 -.1 0 64)"><path d="M0 320V0h299l-28 68c-15 37-40 89-54 116l-26 49 6 11 6 11-8-7-7-7-44 51-43 50-25 64c-28 70-32 105-15 153l11 32 36 24 37 25H0V320zm276 287 49-34 46 24 47 23h86l32-22 32-22 11-38 12-38-7-38-7-37-30-45c-17-25-61-76-99-114l-69-69-34-58c-36-62-38-68-36-111l1-28h330v640H228l48-33zm-46-103c0-11 40-47 46-41 2 2-7 14-21 27s-25 19-25 14zm148-8c-10-7-18-19-18-27v-13l12 12 12 12 26-1 25-2-25-4c-29-6-60-30-60-48 0-12-15-44-33-73l-8-12-16 15-15 16v69l-9-6-9-5v9c0 6-14 19-31 30l-31 20-26-7c-14-4-30-14-35-22l-10-16 6-24c4-13 25-44 48-69l42-45 35-72 34-73 9 6c5 3 31 32 58 64s52 57 55 54c3-2 4-1 1 2-2 4 7 20 20 36l25 30v87l-10 6c-5 3-10 11-10 17v10l14-5c22-9 28 5 9 25l-16 18h-26c-14 0-34-7-43-14zm109-6c6-8 13-31 16-50l4-35 1 36 2 37-17 13-18 14 12-15z"/></g></g></svg>